PathFileType	4	(X/Y/Z)	 s09c0403.trc
DataRate	CameraRate	NumFrames	NumMarkers	Units	OrigDataRate	OrigDataStartFrame	OrigNumFrames
200	200	7	50	mm	200	1251	2000
Frame#	Time	racr			lacr			c7			jug			rlel			rdr			llel			ldr			s2			lic			ric			lasi			rasi			rpsi			lpsi			rgt			lgt			rth1			rth2			rth3			rth4			rlfc			rmfc			rsh1			rsh2			rsh3			rsh4			rlmal			rmmal			rcal			rtoe			rmt5			lth1			lth2			lth4			lth3			llfc			lmfc			llmal			lmmal			lcal			lmt5			lsh1			lsh2			lsh3			lsh4			ltoe			SBIKE			LBIKE			RBIKE			
		X1	Y1	Z1	X2	Y2	Z2	X3	Y3	Z3	X4	Y4	Z4	X5	Y5	Z5	X6	Y6	Z6	X7	Y7	Z7	X8	Y8	Z8	X9	Y9	Z9	X10	Y10	Z10	X11	Y11	Z11	X12	Y12	Z12	X13	Y13	Z13	X14	Y14	Z14	X15	Y15	Z15	X16	Y16	Z16	X17	Y17	Z17	X18	Y18	Z18	X19	Y19	Z19	X20	Y20	Z20	X21	Y21	Z21	X22	Y22	Z22	X23	Y23	Z23	X24	Y24	Z24	X25	Y25	Z25	X26	Y26	Z26	X27	Y27	Z27	X28	Y28	Z28	X29	Y29	Z29	X30	Y30	Z30	X31	Y31	Z31	X32	Y32	Z32	X33	Y33	Z33	X34	Y34	Z34	X35	Y35	Z35	X36	Y36	Z36	X37	Y37	Z37	X38	Y38	Z38	X39	Y39	Z39	X40	Y40	Z40	X41	Y41	Z41	X42	Y42	Z42	X43	Y43	Z43	X44	Y44	Z44	X45	Y45	Z45	X46	Y46	Z46	X47	Y47	Z47	X48	Y48	Z48	X49	Y49	Z49	X50	Y50	Z50	
1251	6.2550	764.955124	1190.070827	2.446384	771.358489	1201.720694	-375.911685	787.038632	1276.464671	-184.619300	764.559019	1139.230793	-190.046472	538.994372	1053.363185	53.373614	687.200548	906.872598	-49.581496	561.239357	1098.351862	-532.110927	666.525455	898.134365	-437.166475	295.413179	1172.788670	-290.319281	444.386468	1129.452707	-398.642084	398.085127	1164.290548	-106.900371	470.182100	1047.669027	-349.700092	433.319907	1101.545322	-105.641104	314.897903	1204.498127	-228.090423	346.574045	1192.278794	-336.341660	362.197909	1045.317030	-62.686280	375.161949	987.960977	-435.045153	479.088230	963.800835	-69.406575	562.484789	934.270810	-78.864290	614.682932	864.954880	-80.592200	578.926939	957.427676	-101.357479	670.032968	778.479775	-111.831995	649.583303	762.463485	-212.920533	576.585039	736.957082	-82.358834	514.422568	672.168849	-91.140761	430.544287	648.104494	-86.278470	530.193344	650.745043	-119.445421	341.298774	590.656853	-83.075019	345.987346	600.313511	-160.031767	253.719112	611.577759	-116.774089	460.216848	443.694824	-131.789045	387.757676	479.727719	-64.048349	375.142757	859.461531	-433.505035	397.487167	777.470677	-420.578234	432.250166	779.647850	-403.317938	376.087932	690.553599	-415.843377	361.057901	597.872615	-398.026517	358.990400	578.995057	-299.325340	181.809817	278.236358	-417.445598	204.589529	278.945783	-349.980163	110.115670	280.366738	-379.313456	233.428544	153.693221	-430.755512	306.634420	514.531085	-424.872701	288.262660	430.172883	-419.467010	228.781561	364.338733	-420.498599	312.238767	419.382217	-389.257700	320.985420	126.366876	-359.839180	-64.930488	851.780652	-239.352531	20.833956	84.880595	-442.197624	21.044320	84.150842	-43.873966	
1252	6.2600	765.705299	1189.318027	3.826398	770.824977	1201.528257	-374.357134	787.215496	1276.180574	-183.157854	764.136694	1138.897303	-188.781036	539.118906	1053.075702	54.123515	687.292563	907.026403	-49.068560	561.716687	1098.769309	-531.758236	666.504361	898.060402	-437.341527	295.798063	1174.222014	-289.563223	445.947286	1129.944170	-397.779708	397.491449	1164.811617	-106.310416	470.769364	1049.180569	-349.487297	432.684137	1101.993488	-105.122883	315.021517	1205.613782	-227.273682	347.093768	1193.806305	-335.697406	361.986260	1045.469576	-62.501846	375.789338	989.389518	-435.430349	478.074075	964.455019	-68.811527	561.678410	934.728652	-77.380359	614.363650	866.189800	-79.184848	578.371801	958.668428	-99.602662	671.074229	780.252767	-109.919112	651.452574	763.529984	-210.857149	577.927441	737.017247	-80.866948	517.339500	670.718967	-89.894754	433.802891	644.826646	-85.425821	533.013237	649.601159	-118.610052	345.960688	585.116849	-82.722441	350.284813	595.041014	-159.633628	257.868120	603.255291	-116.038272	470.195602	443.234796	-131.730553	396.369730	476.205613	-63.705164	376.169410	860.593790	-433.873248	398.516658	778.593110	-421.190737	433.599892	780.865084	-404.226756	377.283164	691.693801	-416.226033	362.057560	598.587440	-398.732894	361.199014	579.919510	-300.034766	174.741536	283.518545	-417.257517	198.014364	283.733185	-349.699278	103.154519	286.941340	-378.755058	223.808850	158.221573	-430.885460	305.755383	516.447573	-425.219227	285.117813	432.630422	-419.531396	223.882610	368.479450	-420.292712	308.851761	421.277345	-389.321749	310.992668	129.222040	-360.006442	-64.937500	851.800946	-239.269680	20.829281	84.910604	-442.194591	21.054372	84.126165	-43.844738	
1253	6.2650	766.648845	1188.342559	4.996203	770.358553	1201.263049	-373.005738	787.455743	1275.833779	-182.039830	763.654621	1138.639752	-187.791711	539.455855	1053.020141	54.875351	687.392861	907.111872	-48.443888	561.992562	1099.157275	-531.487652	666.535870	897.904666	-437.549659	295.855332	1175.280211	-288.369278	447.446055	1130.490262	-396.880994	397.491471	1165.398033	-105.860549	471.359243	1050.937502	-349.538645	432.278733	1102.331473	-104.788561	315.181670	1206.881933	-226.198407	347.327594	1195.496886	-334.672395	361.912650	1045.727465	-62.284538	376.267910	991.191068	-435.795858	476.790819	964.905448	-67.950934	560.736702	935.255530	-75.951376	613.478227	866.785083	-77.536376	577.715289	959.393888	-97.660013	671.434637	781.063722	-107.991446	652.467874	764.082958	-208.765168	578.406994	735.992649	-78.803339	520.024218	668.132996	-88.029474	436.600978	640.497500	-84.481006	535.806402	647.698490	-117.290972	350.313063	578.711570	-82.387864	354.224042	588.883988	-159.148259	261.731865	593.863154	-115.346321	479.694373	442.308323	-131.864951	404.701134	472.056781	-63.375551	377.574931	861.947722	-433.984071	401.497754	781.008934	-422.362992	435.465354	782.298872	-404.745285	379.395374	693.055099	-416.353147	363.997158	599.395697	-399.368263	363.658058	581.027802	-300.695087	168.200376	289.567399	-416.909088	191.575274	289.274621	-349.195158	96.397904	294.293958	-378.371617	214.781736	163.399791	-430.844477	305.639969	518.691325	-425.486565	282.641900	435.488065	-419.509305	219.633471	373.088819	-420.140338	306.162659	423.547058	-389.431182	301.370536	132.615774	-360.085235	-64.892931	851.835769	-239.175024	20.857215	84.944309	-442.148410	21.080792	84.132032	-43.796510	
1254	6.2700	767.788148	1187.500523	5.561174	769.901623	1201.017665	-371.929136	787.712117	1275.445568	-181.087133	763.120010	1138.244745	-186.897442	539.857703	1053.127860	55.631237	687.319423	907.437840	-47.804995	562.116560	1099.479555	-531.197455	666.546289	897.694672	-437.648159	295.909313	1176.951416	-287.178477	448.873106	1131.087168	-395.950957	397.517576	1166.068167	-104.729989	471.817212	1052.771314	-349.600694	432.084617	1102.856290	-104.393119	315.335825	1208.167592	-224.930053	347.590417	1197.350404	-333.481729	361.868034	1046.033344	-61.912033	376.770489	993.165472	-435.953298	475.454197	964.997254	-67.134992	559.495368	935.236507	-74.479617	612.051811	866.774192	-75.712132	576.719637	959.568112	-95.820104	670.956855	780.996867	-106.069000	652.650541	763.885422	-206.773870	578.666122	734.033049	-76.613321	521.828571	664.721039	-86.692868	438.978182	635.170432	-83.532661	538.051783	644.729832	-116.021943	354.285874	571.483478	-82.003877	357.816629	581.742014	-158.636198	265.262066	583.501469	-114.750096	488.945554	440.657874	-131.549698	412.839630	467.226138	-63.100891	379.300827	863.408212	-433.894107	403.894989	782.691942	-422.521162	438.169880	784.291441	-405.459740	382.434459	694.633042	-416.319667	366.872884	600.298161	-399.881394	367.314929	582.152006	-301.375209	162.339031	296.150926	-416.625374	185.905427	295.324917	-348.709495	90.765659	302.383060	-377.780484	206.127866	169.023015	-430.634421	306.335561	521.311003	-425.820240	280.963115	438.733476	-419.557203	216.200524	378.182160	-419.898810	304.213847	426.156042	-389.568802	291.994638	136.374375	-360.215759	-64.878798	851.850701	-239.051328	20.879455	84.955381	-442.091551	21.093348	84.166601	-43.769545	
1255	6.2750	768.770419	1186.431734	6.031245	769.411120	1200.774022	-371.108276	787.975049	1275.240858	-180.470717	762.616263	1138.008542	-186.365898	540.199704	1053.311983	56.332493	687.329732	907.518854	-47.187425	562.146323	1099.692532	-530.859055	666.715138	897.598915	-437.779054	296.147549	1178.695035	-285.854707	450.218774	1131.731069	-394.994613	397.580630	1166.592485	-103.589685	472.269358	1055.314608	-349.430358	431.944965	1103.359821	-104.074972	315.502508	1209.556644	-223.441504	347.777711	1199.196869	-332.196028	361.796816	1046.412045	-61.371713	377.172854	995.375945	-436.063483	474.303315	964.256058	-67.147322	557.975853	934.750531	-73.033333	609.606376	866.388104	-72.756823	575.570610	959.211006	-93.954328	669.689287	780.093309	-104.270075	652.117568	763.046474	-204.736907	578.195500	730.483781	-75.297109	522.847046	660.555492	-85.626708	440.887350	628.880120	-82.489978	540.184016	640.335733	-115.061939	358.080229	563.226610	-81.577424	361.373986	573.919808	-158.342756	268.561368	572.232444	-114.162468	497.589595	438.371589	-131.285983	420.484721	461.678687	-62.727101	381.471899	865.006121	-433.404373	406.834696	784.596808	-422.409764	440.891723	785.986585	-404.878784	386.277806	696.301465	-416.047056	370.657121	601.465199	-400.241142	371.854655	583.149256	-302.044750	157.191494	303.353195	-416.394873	180.928840	301.882108	-348.294814	85.913073	311.161015	-377.151896	197.856540	175.205038	-430.408300	307.863269	524.102477	-426.115369	280.001642	442.376831	-419.549922	213.426701	383.822819	-419.721917	303.026228	429.070709	-389.699433	282.919730	140.467987	-360.203057	-64.839400	851.884763	-238.919719	20.893770	85.001299	-442.083678	21.160653	84.133861	-43.708127	
1256	6.2800	769.856045	1185.416507	6.285773	768.924318	1200.587032	-370.563152	788.251512	1275.087571	-180.209255	762.172683	1137.824398	-186.122303	540.584780	1053.653860	56.998139	687.225632	907.485926	-46.625672	562.089886	1099.751437	-530.398654	666.867450	897.405751	-437.702520	296.278997	1180.367809	-284.300025	451.473391	1132.418151	-394.016977	397.778907	1167.223447	-102.269436	471.976277	1057.882779	-349.722675	431.886931	1103.858419	-103.540970	315.660424	1210.934470	-221.792087	347.776113	1201.196277	-330.597519	361.621985	1046.800771	-60.884688	377.553288	997.737277	-436.010672	472.611450	963.821597	-66.252538	556.254853	933.706341	-71.596285	607.144959	865.228497	-70.847596	574.113926	958.314112	-92.145276	667.809334	778.452673	-102.000582	650.831803	761.547483	-202.798799	577.323241	726.174660	-73.675608	523.986433	655.054586	-84.369719	442.601783	621.668838	-81.676075	541.273807	636.174126	-114.196952	361.556301	554.121298	-81.299396	363.864831	565.361519	-157.877881	271.496132	560.123986	-113.732260	505.583192	435.433286	-131.025767	427.717115	455.536430	-62.438788	383.896276	866.716375	-433.108686	410.300906	786.757573	-422.152645	444.554218	788.523843	-405.202817	390.865317	698.184805	-415.581625	375.044104	602.723846	-400.168101	377.271802	584.136577	-302.737044	152.749129	310.979991	-416.199140	176.527917	308.931484	-347.787108	81.818190	320.567053	-376.596367	190.162595	182.027241	-430.299370	310.173939	527.095295	-426.418226	279.802367	446.274961	-419.542192	211.426515	389.842548	-419.564712	302.621927	432.688243	-390.211681	274.141435	144.770330	-360.016613	-64.792134	851.936954	-238.778970	20.928876	85.048138	-442.042978	21.169864	84.166817	-43.672194	
1257	6.2850	770.776598	1184.388909	6.069020	768.418788	1200.467865	-370.243455	788.520708	1274.980599	-180.240179	761.819481	1137.624924	-186.118795	540.908797	1054.080901	57.536766	687.088028	907.502414	-46.087211	561.875628	1099.731042	-529.981014	667.151520	897.281865	-437.493881	296.298413	1181.966516	-282.590097	452.627290	1133.144596	-393.023064	397.867048	1167.597839	-101.137355	471.959678	1060.303255	-349.918924	431.849242	1104.270185	-103.195506	317.192983	1211.956138	-220.331885	347.756496	1202.912536	-328.915651	361.230050	1047.064193	-60.095340	377.998538	1000.151023	-435.814583	470.805855	963.085863	-65.374588	554.202295	932.201493	-70.105800	604.265674	863.264754	-69.193794	572.694353	956.846128	-89.935598	663.085234	776.447139	-100.273031	648.972865	759.277871	-201.029526	576.467895	721.266476	-71.702055	524.599961	648.936176	-83.342658	443.948241	613.711940	-80.925107	542.063891	630.865841	-113.603989	364.800091	544.204838	-81.075144	366.368027	556.354546	-157.484544	274.426431	547.738271	-113.589803	512.932275	431.978587	-130.790791	434.374796	448.870570	-62.093684	386.666935	868.447296	-432.654104	414.136611	788.867072	-421.526330	448.679414	791.208599	-405.292675	396.126550	700.090552	-414.975562	380.494415	604.315711	-400.411041	383.228918	585.209231	-303.400838	149.072063	319.101172	-416.018644	172.964449	316.263898	-347.325523	78.435090	330.472044	-376.190869	183.138404	189.204716	-430.144711	313.380989	530.205337	-426.687368	280.394274	450.499538	-419.482498	210.250461	396.233223	-419.401620	302.787377	436.159056	-390.322074	265.200310	147.732591	-357.820004	-64.718965	852.004412	-238.602888	20.932140	85.127072	-442.041474	21.181490	84.152306	-43.660865	
